<svg xmlns="http://www.w3.org/2000/svg" enable-background="new 0 0 1920 1080" viewBox="0 0 1920 1080"><path fill="#2A94F4" d="M600.527,1028.367c-110.05-55.774-309.335-66.827-291.268-419.183
		c18.067-352.356,499.516-364.061,555.356-538.234c55.84-174.172,643.479-23.512,295.752,406.166
		c-61.573,76.084,82.965,160.556,57.671,298.991S710.578,1084.141,600.527,1028.367z" opacity=".11"/><ellipse cx="815.141" cy="1019.475" fill="#2A94F4" opacity=".11" rx="393.864" ry="60.525"/><path fill="#0B4870" d="M1112.88,1011.579H490.99c-13.255,0-24-10.745-24-24V130.18c0-13.255,10.745-24,24-24h621.89
		c13.255,0,24,10.745,24,24v857.399C1136.88,1000.834,1126.135,1011.579,1112.88,1011.579z"/><path fill="#F7F7F7" d="M1083.076,978.979H520.794c-13.255,0-24-10.745-24-24V162.78c0-13.255,10.745-24,24-24h562.281
		c13.255,0,24,10.745,24,24v792.198C1107.076,968.234,1096.331,978.979,1083.076,978.979z"/><rect width="85.528" height="85.528" x="577.04" y="251.983" fill="#2A94F4" opacity=".11"/><path fill="#FFBE55" d="M572.711,276.352c4.341,2.213,8.357,4.731,12.273,7.344c3.892,2.634,7.693,5.355,11.353,8.207
		c7.361,5.666,14.304,11.725,20.957,18.055l-14.762,1.092c2.19-3.481,4.33-6.605,6.663-9.759c2.291-3.146,4.709-6.185,7.202-9.168
		c5.015-5.94,10.379-11.605,16.212-16.831c5.864-5.196,12.108-10.031,18.904-14.128c6.839-4.013,14.125-7.517,21.989-9.181
		c-5.037,6.266-9.748,12.047-14.367,17.91l-13.631,17.502c-4.525,5.806-9.053,11.602-13.627,17.366l-13.7,17.128l-7.661,9.577
		l-7.102-8.484c-5.894-7.042-11.499-14.356-16.686-22.062c-2.614-3.834-5.087-7.8-7.468-11.852
		C576.901,284.994,574.643,280.825,572.711,276.352z"/><rect width="85.528" height="85.528" x="577.04" y="502.68" fill="#2A94F4" opacity=".11"/><rect width="85.528" height="85.528" x="577.04" y="759.764" fill="#2A94F4" opacity=".11"/><g opacity=".52"><rect width="335.447" height="13.771" x="701.06" y="251.983" fill="#2A94F4"/><rect width="335.447" height="13.771" x="701.06" y="287.862" fill="#2A94F4"/><polyline fill="#2A94F4" points="847.661 323.74 1036.507 323.74 1036.507 337.511 701.06 337.511 701.06 323.74 847.661 323.74"/></g><g opacity=".52"><rect width="335.447" height="13.771" x="701.06" y="502.68" fill="#2A94F4"/><rect width="335.447" height="13.771" x="701.06" y="538.558" fill="#2A94F4"/><rect width="159.85" height="13.771" x="701.06" y="574.436" fill="#2A94F4"/></g><g opacity=".52"><rect width="335.447" height="13.771" x="701.06" y="759.764" fill="#2A94F4"/><rect width="321.853" height="13.771" x="701.06" y="795.642" fill="#2A94F4"/><rect width="335.447" height="13.771" x="701.06" y="831.52" fill="#2A94F4"/></g><path fill="#FFBE55" d="M949.751,150.324H654.119V86.036c0-13.255,10.745-24,24-24h247.632c13.255,0,24,10.745,24,24V150.324z"/><g><rect width="287.87" height="175.129" x="693.488" y="880.179" fill="#FFBE55"/><polygon fill="#FFBE55" points="981.358 880.179 693.488 880.179 717.076 827.338 957.771 827.338"/><rect width="287.87" height="175.129" x="693.488" y="880.179" fill="#FFBE55" opacity=".11"/></g><g><path fill="#0E538C" d="M792.765,584.688c0,0-67.22,75.961-72.029,101.382c-4.809,25.421,60.92,137.778,60.92,137.778
					l-30.541,21.287l60.947-5.826c0,0-25.649-93.276-40.228-125.041c19.608-13.295,66.838-65.335,66.838-65.335l43.809,102.074
					l18.885,116.637l50.63,14.9l-29.557-32.068c5.238-85.727,5.141-85.747,8.974-111.952c3.665-25.05-18.068-115.911-24.483-144.867
					C900.516,564.702,811.722,572.77,792.765,584.688z"/><path fill="#FCD2B1" d="M777.516,357.174c0.903,3.423,22.225,93.367,22.225,93.367s-19.38,9.487-27.423-1.373
					c-8.043-10.86-10.733-93.128-10.733-93.128L777.516,357.174z"/><path fill="#FCD2B1" d="M774.045,339.36c0,0-11.725-10.121-15.357-2.526c-3.632,7.596,2.767,15.676,2.897,19.206
					s15.931,1.134,15.931,1.134S781.573,345.684,774.045,339.36z"/><path fill="#FFBE55" d="M781.399,354.288L657.28,307.839c0,0-11.166,12.459-7.224,27.35l125.896,28.685
					C775.952,363.874,782.58,365.506,781.399,354.288z"/><path fill="#FCD2B1" d="M851.962 415.632l-10.834 28.903c0 0 1.324 13.701 16.315 13.983 14.991.282 17.487-8.385 17.487-8.385l-2.473-34.289C872.458 415.845 858.367 411.94 851.962 415.632zM757.298 438.06l-14.887-2.964-11.421-62.745 14.188-15.431-10.211-2.94c0 0 2.026-12.635.518-19.149-1.509-6.513-5.792-8.156-16.452-3.96-5.62 3.261-10.061 23.56-4.723 35.069 5.338 11.51 4.807 83.938 3.699 95.579-1.108 11.641 31.305 19.179 31.305 19.179s15.506 2.135 20.579-14.096C774.966 450.371 757.298 438.06 757.298 438.06z"/><path fill="#FFBE55" d="M853.958,439.537c-11.892-2.357-26.013-3.378-41.986-1.4c-28.555,1.13-54.674-0.077-54.674-0.077
					s-11.475,20.013-7.983,42.637c0,0,28.458,17.405,55.866,18.501c3.13,12.851-1.764,70.987-12.416,85.489
					c8.018,12.445,75.385,27.143,114.165,8.97c6.59-12.807-0.09-67.386-5.504-103.628
					C897.679,464.941,878.842,444.471,853.958,439.537z"/><path fill="#FFE3CA" d="M847.162,368.219c0,0-21.5,26.286-18.976,36.383c2.526,10.097,14.63,19.492,43.321,22.676
					c9.848-1.476,20.746-30.886,20.497-37.04C890.375,349.96,857.74,361.425,847.162,368.219z"/><path fill="#0B4870" d="M873.95 382.785c0 0-37.548-6.064-41.204-25.031-3.655-18.967 26.993-28.713 40.581-22.783 5.788 2.526 8.712 6.957 12.116 11.939 3.829 5.604 8.573 7.497 14.684 10.737 1.967 1.043 3.945 2.094 5.699 3.466 9.47 7.412 6.109 16.214 4.51 26.135-1.536 9.532-3.018 19.34-9.272 27.099-10.877 13.491-29.107 11.397-28.604 1.496C872.961 405.945 884.066 385.13 873.95 382.785zM781.655 823.848c0 0 18.342-.353 25.324-2.356 3.127 10.8 5.083 17.817 5.083 17.817l-60.947 5.826L781.655 823.848zM898.098 846.279c8.78 5.083 24.342 4.198 24.342 4.198l29.557 32.067-50.631-16.08L898.098 846.279z"/><polygon fill="#FFE3CA" points="657.28 307.839 623.105 310.033 650.056 335.189 657.28 336.835 649.905 327.799 661.348 328.401 652.916 319.367 665.864 319.668 655.626 312.743 667.014 311.482"/><path fill="#FFBE55" d="M639.937,308.952c0,0,0.524,9.763-4.842,12.272l-11.99-11.192L639.937,308.952z"/><path fill="#FAB9AF" d="M776.379,352.41c0,0-11.669,3.211-24.316-1.306s0.675-18.86,9.522-17.861
			C770.432,334.241,782.186,342.172,776.379,352.41z"/></g></svg>